/* XPM */
static char * xawtv32x32[] = {
"32 32 591 2",
"  	c None",
". 	c #A4A4A6",
"+ 	c #9D9C9E",
"@ 	c #A09EA1",
"# 	c #9F9D9F",
"$ 	c #9A999C",
"% 	c #9C9A9D",
"& 	c #939194",
"* 	c #969597",
"= 	c #989798",
"- 	c #9A999A",
"; 	c #979598",
"> 	c #9E9D9F",
", 	c #A1A0A1",
"' 	c #A1A0A2",
") 	c #9F9EA0",
"! 	c #9C9B9D",
"~ 	c #A09FA2",
"{ 	c #A09EA0",
"] 	c #9E9D9E",
"^ 	c #9C9B9C",
"/ 	c #9A999B",
"( 	c #969497",
"_ 	c #8F8F91",
": 	c #969698",
"< 	c #959597",
"[ 	c #979798",
"} 	c #878789",
"| 	c #828084",
"1 	c #8F8A90",
"2 	c #918C92",
"3 	c #928D94",
"4 	c #908C92",
"5 	c #938E93",
"6 	c #928E92",
"7 	c #918C91",
"8 	c #8E8A8F",
"9 	c #8E8A90",
"0 	c #8F8A91",
"a 	c #8F8B91",
"b 	c #8F8A8F",
"c 	c #8D888D",
"d 	c #8E898F",
"e 	c #8B878C",
"f 	c #878386",
"g 	c #878385",
"h 	c #858184",
"i 	c #837F83",
"j 	c #7E7B7F",
"k 	c #77777A",
"l 	c #737376",
"m 	c #727176",
"n 	c #727276",
"o 	c #838384",
"p 	c #878689",
"q 	c #888689",
"r 	c #42414B",
"s 	c #2D2C33",
"t 	c #2D2C34",
"u 	c #2D2C35",
"v 	c #2D2B35",
"w 	c #2C2B34",
"x 	c #2C2B32",
"y 	c #2B2B31",
"z 	c #2A2A30",
"A 	c #2B2A31",
"B 	c #2B2A30",
"C 	c #2A2932",
"D 	c #292831",
"E 	c #282730",
"F 	c #282630",
"G 	c #26252E",
"H 	c #25242D",
"I 	c #3E3E4B",
"J 	c #78757B",
"K 	c #706E74",
"L 	c #909092",
"M 	c #8A898B",
"N 	c #1E1D23",
"O 	c #000000",
"P 	c #000001",
"Q 	c #000002",
"R 	c #000003",
"S 	c #000103",
"T 	c #2E2F38",
"U 	c #7B7A7B",
"V 	c #757377",
"W 	c #8A898C",
"X 	c #8C8A90",
"Y 	c #1C1C23",
"Z 	c #000101",
"` 	c #020204",
" .	c #0B0B0C",
"..	c #030304",
"+.	c #323138",
"@.	c #817D82",
"#.	c #706F72",
"$.	c #8E8D90",
"%.	c #8E8C92",
"&.	c #1A191F",
"*.	c #020203",
"=.	c #262626",
"-.	c #0D0D0E",
";.	c #333137",
">.	c #848086",
",.	c #717072",
"'.	c #929194",
").	c #908E94",
"!.	c #19181F",
"~.	c #010101",
"{.	c #0A0A0B",
"].	c #050506",
"^.	c #08080A",
"/.	c #131315",
"(.	c #040406",
"_.	c #010102",
":.	c #343338",
"<.	c #868287",
"[.	c #717071",
"}.	c #8D8D8F",
"|.	c #8E8C93",
"1.	c #19181E",
"2.	c #0B0B0B",
"3.	c #676767",
"4.	c #2A2A2A",
"5.	c #5D5D5E",
"6.	c #747474",
"7.	c #151516",
"8.	c #343337",
"9.	c #706F70",
"0.	c #18181D",
"a.	c #1A1A1B",
"b.	c #43403A",
"c.	c #817240",
"d.	c #81774D",
"e.	c #54524C",
"f.	c #303031",
"g.	c #323136",
"h.	c #868286",
"i.	c #868689",
"j.	c #88868D",
"k.	c #17161C",
"l.	c #100E09",
"m.	c #80631E",
"n.	c #E0B613",
"o.	c #E0C122",
"p.	c #A68E23",
"q.	c #2B2514",
"r.	c #010103",
"s.	c #312F34",
"t.	c #848085",
"u.	c #706F71",
"v.	c #868588",
"w.	c #85838A",
"x.	c #16161C",
"y.	c #0D0A03",
"z.	c #8F6E1B",
"A.	c #E0B711",
"B.	c #D8AE11",
"C.	c #B18D31",
"D.	c #373020",
"E.	c #2F2E33",
"F.	c #6F6F70",
"G.	c #838285",
"H.	c #807E85",
"I.	c #16151B",
"J.	c #0D0D0D",
"K.	c #8A8377",
"L.	c #B6974D",
"M.	c #BC9F63",
"N.	c #D7D2C6",
"O.	c #5A5959",
"P.	c #131314",
"Q.	c #2C2C30",
"R.	c #79767A",
"S.	c #6F6D6E",
"T.	c #808083",
"U.	c #78777E",
"V.	c #14141A",
"W.	c #4E4D4E",
"X.	c #E4E4E3",
"Y.	c #D8D7D6",
"Z.	c #EDECEB",
"`.	c #FEFEFC",
" +	c #C7C7C5",
".+	c #29292D",
"++	c #716F73",
"@+	c #6D6B6C",
"#+	c #74737A",
"$+	c #131319",
"%+	c #858585",
"&+	c #F9F9F8",
"*+	c #F5F5F4",
"=+	c #FCFCFA",
"-+	c #F3F3F2",
";+	c #E2E2E1",
">+	c #121213",
",+	c #28282D",
"'+	c #706E73",
")+	c #6C6A6D",
"!+	c #807F82",
"~+	c #706F76",
"{+	c #0F0F10",
"]+	c #C8C8C7",
"^+	c #FBFBF9",
"/+	c #FAFAF8",
"(+	c #FDFDFB",
"_+	c #F6F6F4",
":+	c #E5E5E4",
"<+	c #848484",
"[+	c #171718",
"}+	c #030305",
"|+	c #010000",
"1+	c #242429",
"2+	c #6D6D71",
"3+	c #6A696D",
"4+	c #7F7F82",
"5+	c #6E6D74",
"6+	c #060607",
"7+	c #555555",
"8+	c #C9C9C8",
"9+	c #383838",
"0+	c #0B0B0D",
"a+	c #222227",
"b+	c #68686C",
"c+	c #69686C",
"d+	c #7E7E80",
"e+	c #6E6D73",
"f+	c #131318",
"g+	c #161617",
"h+	c #B0B0AF",
"i+	c #F9F9F7",
"j+	c #EAEAE8",
"k+	c #434344",
"l+	c #202226",
"m+	c #65666B",
"n+	c #68676B",
"o+	c #818183",
"p+	c #6D6C72",
"q+	c #333333",
"r+	c #F7F7F5",
"s+	c #F2F2F0",
"t+	c #4B4B4B",
"u+	c #0A0A0C",
"v+	c #202225",
"w+	c #626368",
"x+	c #67666A",
"y+	c #6B6A70",
"z+	c #241B04",
"A+	c #5D522E",
"B+	c #CCCBC8",
"C+	c #F6F6F5",
"D+	c #FBFBFA",
"E+	c #EDE8D6",
"F+	c #4B4942",
"G+	c #0C0C0D",
"H+	c #0C0B0B",
"I+	c #202125",
"J+	c #606165",
"K+	c #666569",
"L+	c #6B6A6F",
"M+	c #141319",
"N+	c #060400",
"O+	c #2F2103",
"P+	c #A07709",
"Q+	c #CEA011",
"R+	c #877C5A",
"S+	c #F2F2F1",
"T+	c #F8F8F6",
"U+	c #E6C767",
"V+	c #493D12",
"W+	c #060507",
"X+	c #5A4B0D",
"Y+	c #141001",
"Z+	c #5E5F63",
"`+	c #656468",
" @	c #7D7D80",
".@	c #6A6970",
"+@	c #705107",
"@@	c #EDB30C",
"#@	c #F2BA0C",
"$@	c #F5BD0C",
"%@	c #AD870A",
"&@	c #494846",
"*@	c #D8D8D6",
"=@	c #F0F0EF",
"-@	c #D7AC3C",
";@	c #A07308",
">@	c #7D5A07",
",@	c #D7A40A",
"'@	c #4C3A05",
")@	c #1D1D21",
"!@	c #5D5C61",
"~@	c #646367",
"{@	c #7C7B7F",
"]@	c #69676F",
"^@	c #17171C",
"/@	c #6A4C06",
"(@	c #F4BB0C",
"_@	c #EDB90C",
":@	c #43370C",
"<@	c #9F9F9E",
"[@	c #E8E8E6",
"}@	c #C09525",
"|@	c #E7AE0A",
"1@	c #E8B00B",
"2@	c #C0930A",
"3@	c #534523",
"4@	c #5C5A5F",
"5@	c #636266",
"6@	c #7A7A7D",
"7@	c #65646B",
"8@	c #010100",
"9@	c #755405",
"0@	c #DDB531",
"a@	c #DCD5C3",
"b@	c #F1F1EF",
"c@	c #BDBDBC",
"d@	c #454546",
"e@	c #AE8009",
"f@	c #F3BB0C",
"g@	c #E4AE0C",
"h@	c #8A6E25",
"i@	c #5B585E",
"j@	c #636265",
"k@	c #7A7A7C",
"l@	c #636268",
"m@	c #090601",
"n@	c #8D6406",
"o@	c #E6AD0B",
"p@	c #EEB50C",
"q@	c #F5BC0C",
"r@	c #D8A30D",
"s@	c #6C5931",
"t@	c #585859",
"u@	c #4D4D4E",
"v@	c #1E1E20",
"w@	c #060505",
"x@	c #B58208",
"y@	c #F2B90C",
"z@	c #F1B80C",
"A@	c #CF9B0A",
"B@	c #513C05",
"C@	c #2A2623",
"D@	c #5A585F",
"E@	c #626165",
"F@	c #6E9C6A",
"G@	c #34C925",
"H@	c #10530D",
"I@	c #020408",
"J@	c #051805",
"K@	c #169608",
"L@	c #12720A",
"M@	c #030806",
"N@	c #020206",
"O@	c #090707",
"P@	c #332308",
"Q@	c #5F410A",
"R@	c #91660B",
"S@	c #B8850A",
"T@	c #966708",
"U@	c #2B1D08",
"V@	c #0A3608",
"W@	c #1BB50A",
"X@	c #1CC30A",
"Y@	c #1DC30A",
"Z@	c #49CA0B",
"`@	c #54D90B",
" #	c #727E0A",
".#	c #1E1507",
"+#	c #030307",
"@#	c #124313",
"##	c #34C326",
"$#	c #5A7959",
"%#	c #818C82",
"&#	c #3AB72D",
"*#	c #23C215",
"=#	c #324B3A",
"-#	c #277D25",
";#	c #24E30F",
">#	c #385B3C",
",#	c #34343E",
"'#	c #32323C",
")#	c #303339",
"!#	c #2F3139",
"~#	c #2D2C37",
"{#	c #20222B",
"]#	c #1F232C",
"^#	c #1F1F28",
"/#	c #201F29",
"(#	c #2D2829",
"_#	c #443F2C",
":#	c #40382A",
"<#	c #27282E",
"[#	c #2B482F",
"}#	c #3BA331",
"|#	c #25EE0F",
"1#	c #33C623",
"2#	c #429832",
"3#	c #31C91A",
"4#	c #2E9521",
"5#	c #34353E",
"6#	c #373840",
"7#	c #299821",
"8#	c #32C822",
"9#	c #5D6A5D",
"0#	c #848486",
"a#	c #566557",
"b#	c #2ADF16",
"c#	c #36BA28",
"d#	c #28E414",
"e#	c #419E36",
"f#	c #595858",
"g#	c #556153",
"h#	c #37BA28",
"i#	c #27E712",
"j#	c #2BDC17",
"k#	c #32C122",
"l#	c #16A913",
"m#	c #129C18",
"n#	c #169F0D",
"o#	c #02200F",
"p#	c #159A0A",
"q#	c #11961A",
"r#	c #032C0E",
"s#	c #18B812",
"t#	c #347E2A",
"u#	c #595456",
"v#	c #28E513",
"w#	c #458E3C",
"x#	c #575455",
"y#	c #429637",
"z#	c #2FCF1D",
"A#	c #52654D",
"B#	c #51664D",
"C#	c #2ED11C",
"D#	c #42923B",
"E#	c #5D5D60",
"F#	c #828284",
"G#	c #525154",
"H#	c #3B9332",
"I#	c #25EC0F",
"J#	c #2DC91C",
"K#	c #4B5F49",
"L#	c #504E51",
"M#	c #3F9736",
"N#	c #29E014",
"O#	c #3E9635",
"P#	c #419638",
"Q#	c #19B20E",
"R#	c #0D6D17",
"S#	c #1DD513",
"T#	c #074E1B",
"U#	c #1FDE0D",
"V#	c #1AC00E",
"W#	c #093B06",
"X#	c #1FDB0C",
"Y#	c #2A4728",
"Z#	c #545255",
"`#	c #27E513",
" $	c #408A38",
".$	c #4F4D4F",
"+$	c #485F46",
"@$	c #28E113",
"#$	c #43753D",
"$$	c #41773B",
"%$	c #27E313",
"&$	c #485A45",
"*$	c #59595B",
"=$	c #7D7D7F",
"-$	c #434244",
";$	c #34872B",
">$	c #24EB0F",
",$	c #2BC41A",
"'$	c #3C4F3A",
")$	c #3E473E",
"!$	c #2BBF1B",
"~$	c #36A72A",
"{$	c #565457",
"]$	c #3CA830",
"^$	c #32C222",
"/$	c #515D51",
"($	c #29DE15",
"_$	c #38A12D",
":$	c #29DF15",
"<$	c #2ADC16",
"[$	c #39A12E",
"}$	c #2CCC1B",
"|$	c #4D4C4E",
"1$	c #535254",
"2$	c #27E512",
"3$	c #3A8431",
"4$	c #403E41",
"5$	c #3D3B3E",
"6$	c #2ABB1B",
"7$	c #309C23",
"8$	c #2FA021",
"9$	c #2BB81C",
"0$	c #414041",
"a$	c #545455",
"b$	c #7B7B7D",
"c$	c #3F4B3F",
"d$	c #27DA13",
"e$	c #2BB31C",
"f$	c #25E310",
"g$	c #318C28",
"h$	c #3C443B",
"i$	c #2BBE1B",
"j$	c #35A728",
"k$	c #4C4B4D",
"l$	c #545256",
"m$	c #3AA72F",
"n$	c #31C222",
"o$	c #525753",
"p$	c #35BA26",
"q$	c #29E114",
"r$	c #37B12A",
"s$	c #32C123",
"t$	c #28E014",
"u$	c #3C9F31",
"v$	c #514F52",
"w$	c #525052",
"x$	c #38822F",
"y$	c #3E3C3E",
"z$	c #3B393B",
"A$	c #318328",
"B$	c #28CD16",
"C$	c #27D115",
"D$	c #328229",
"E$	c #3F3D3E",
"F$	c #505051",
"G$	c #34B127",
"H$	c #29C818",
"I$	c #374F34",
"J$	c #318927",
"K$	c #26E310",
"L$	c #375833",
"M$	c #34862A",
"N$	c #27E212",
"O$	c #359A2A",
"P$	c #3A9931",
"Q$	c #28DF14",
"R$	c #30C121",
"S$	c #4C514C",
"T$	c #3F8138",
"U$	c #43763D",
"V$	c #3B9232",
"W$	c #27E113",
"X$	c #43703F",
"Y$	c #4C4A4D",
"Z$	c #27E412",
"`$	c #36802C",
" %	c #3D3B3C",
".%	c #3C3A3B",
"+%	c #385733",
"@%	c #28D414",
"#%	c #28D315",
"$%	c #3A5836",
"%%	c #434142",
"&%	c #535353",
"*%	c #36EB22",
"=%	c #43863C",
"-%	c #4D4D4D",
";%	c #5A6C57",
">%	c #44C635",
",%	c #46A73B",
"'%	c #52604F",
")%	c #3DB330",
"!%	c #2DE418",
"~%	c #31D51F",
"{%	c #39B72B",
"]%	c #39AE2D",
"^%	c #4A4E49",
"/%	c #405C3D",
"(%	c #2DB71E",
"_%	c #414B41",
":%	c #3D6039",
"<%	c #2EAE20",
"[%	c #435242",
"}%	c #484648",
"|%	c #4A494A",
"1%	c #33CD23",
"2%	c #437E3B",
"3%	c #4E4C4D",
"4%	c #504F50",
"5%	c #585D56",
"6%	c #47B73A",
"7%	c #4AB93E",
"8%	c #565B55",
"9%	c #545353",
"0%	c #757575",
". + @ + # # $ % & & * # = - % ; > , ' ) ! ~ { ] ^ / ( _ : < [   ",
"} | 1 2 3 4 5 6 7 8 9 0 a 1 b c d 1 a a b e f g h i j k l m n o ",
"p q r s t u u u v w x x x y z z A A A B C C D E F E E G H I J K ",
"L M N O O O O O O P Q Q Q Q Q Q Q Q Q Q Q R R R R R S R R T U V ",
"W X Y O O O O O O O O O O O O O O O O Z ` `  ...O O O O P +.@.#.",
"$.%.&.O O O O O O O O O O O O O O O P *.` ` =.-.O O O O O ;.>.,.",
"'.).!.O O O O O O O O O O O O O O O ~.{.].^./.(._.O O O O :.<.[.",
"}.|.1.P O O O O O O O O O O O O O O 2.3.4.5.6.7._.O O O P 8.<.9.",
"p X 0.P O O O O O O O O O O O O O O a.b.c.d.e.f._.O O O O g.h.[.",
"i.j.k.P O O O O O O O O O O O O O O l.m.n.o.p.q.r.O O O O s.t.u.",
"v.w.x.P O O O O O O O O O O O O O O y.z.A.B.C.D.7.P O O O E.@.F.",
"G.H.I.P O O O O O O O O O O O O O O J.K.L.M.N.O.P._.O O O Q.R.S.",
"T.U.V.P O O O O O O O O O O O O O O W.X.Y.Z.`. +` ` O O O .+++@+",
"T.#+$+P O O O O O O O O O O O O O _.%+&+*+=+-+;+>+` _.O O ,+'+)+",
"!+~+$+P O O O O O O O O O O O O *.{+]+^+/+(+_+:+<+[+}+P |+1+2+3+",
"4+5+$+P O O O O O O O O O O O O 6+7+^+(+=+(+(+(+8+9+0+_.O a+b+c+",
"d+e+f+P O O O O O O O O O O O O g+h+(+i+/+(+(+(+j+k+-.` P l+m+n+",
"o+p+f+P O O O O O O O O O O O Q q+8+(+r+/+(+(+(+s+t+u+` O v+w+x+",
"d+y+$+P O O O O O O O O O O O z+A+B+(+C+D+(+(+(+E+F+G+H+O I+J+K+",
"d+L+M+P O O O O O O O O O N+O+P+Q+R+S+T+=+(+(+(+U+V+W+X+Y+I+Z+`+",
" @.@k.P O O O O O O O O O +@@@#@$@%@&@*@(+(+(+=@-@;@>@,@'@)@!@~@",
"{@]@^@P O O O O O O O O O /@(@$@$@_@:@<@(+(+(+[@}@|@1@(@2@3@4@5@",
"6@7@f+P O O O O O O O O 8@9@(@$@$@$@0@a@T+b@c@d@e@f@$@$@g@h@i@j@",
"k@l@f+P O O O O O O O O m@n@o@p@(@q@r@s@t@u@v@w@x@y@z@A@B@C@D@E@",
"F@G@H@I@J@K@L@M@N@N@N@N@N@O@P@Q@R@S@T@U@V@W@X@Y@Z@`@ #.#+#@###$#",
"%#&#*#=#-#;#>#,#'#)#!#~#{#]#^#/#(#_#:#<#[#}#|#1#2#3#4#5#6#7#8#9#",
"0#a#b#c#d#e#f#g#h#i#j#k#l#m#n#o#p#q#r#s#t#u#v#w#x#y#z#A#B#C#D#E#",
"F#G#H#I#J#K#L#M#N#O#P#b#Q#R#S#T#U#V#W#X#Y#Z#`# $.$+$@$#$$$%$&$*$",
"=$-$;$>$,$'$)$!$~$L#{$]$^$/$($_$:$<$[$}$|$1$2$3$4$5$6$7$8$9$0$a$",
"b$c$d$e$f$g$h$i$j$k$l$m$n$o$p$q$r$s$t$u$v$w$2$x$y$z$A$B$C$D$E$F$",
"  G$H$I$J$K$L$M$N$O$P$Q$R$S$T$I#U$V$W$X$Y$k$Z$`$ %.%+%@%#%$%%%&%",
"  *%=%-%;%>%,%'%)%!%~%{%]%^%/%(%_%:%<%[%}%|%1%2%3%4%5%6%7%8%9%0%"};
