/* XPM */
static char * xawtv16x16[] = {
"16 16 181 2",
"  	c None",
". 	c #8F8E91",
"+ 	c #969397",
"@ 	c #979499",
"# 	c #979497",
"$ 	c #918E92",
"% 	c #949196",
"& 	c #949195",
"* 	c #939094",
"= 	c #979498",
"- 	c #979599",
"; 	c #959296",
"> 	c #928F91",
", 	c #8F8C8F",
"' 	c #858487",
") 	c #818184",
"! 	c #878789",
"~ 	c #8A898C",
"{ 	c #232228",
"] 	c #16161A",
"^ 	c #151519",
"/ 	c #16151A",
"( 	c #161519",
"_ 	c #15141A",
": 	c #14141A",
"< 	c #14131A",
"[ 	c #141319",
"} 	c #24242D",
"| 	c #767478",
"1 	c #8D8B90",
"2 	c #0E0D10",
"3 	c #000000",
"4 	c #000101",
"5 	c #020204",
"6 	c #101011",
"7 	c #19181C",
"8 	c #7A777B",
"9 	c #8F8E93",
"0 	c #0C0C10",
"a 	c #1F1F20",
"b 	c #252526",
"c 	c #282829",
"d 	c #000001",
"e 	c #1A1A1C",
"f 	c #7B797C",
"g 	c #88878C",
"h 	c #0C0C0F",
"i 	c #3B331F",
"j 	c #B09830",
"k 	c #554D2D",
"l 	c #19181A",
"m 	c #7B787B",
"n 	c #848287",
"o 	c #0B0B0E",
"p 	c #4D4228",
"q 	c #CAA734",
"r 	c #867A5C",
"s 	c #0A0A0B",
"t 	c #171619",
"u 	c #767476",
"v 	c #7B7A80",
"w 	c #0A0A0D",
"x 	c #ACACAC",
"y 	c #EEEDEC",
"z 	c #E6E6E5",
"A 	c #060608",
"B 	c #141416",
"C 	c #6E6C70",
"D 	c #77767C",
"E 	c #1B1B1C",
"F 	c #EFEFED",
"G 	c #FCFCFA",
"H 	c #F5F5F4",
"I 	c #676767",
"J 	c #040405",
"K 	c #121214",
"L 	c #6A6A6E",
"M 	c #76767A",
"N 	c #0A0A0C",
"O 	c #707070",
"P 	c #FAFAF8",
"Q 	c #FDFDFB",
"R 	c #9A9A9A",
"S 	c #070708",
"T 	c #101113",
"U 	c #66666A",
"V 	c #747377",
"W 	c #020100",
"X 	c #3D2D04",
"Y 	c #A08E58",
"Z 	c #F7F7F6",
"` 	c #9A8D64",
" .	c #1E1A0B",
"..	c #151413",
"+.	c #626266",
"@.	c #727177",
"#.	c #0C0B0E",
"$.	c #362703",
"%.	c #F2B90C",
"&.	c #E1AE0C",
"*.	c #817E72",
"=.	c #F4F4F3",
"-.	c #C8981D",
";.	c #CC9A0A",
">.	c #5F4C15",
",.	c #605F63",
"'.	c #6E6E72",
").	c #433003",
"!.	c #EFB60C",
"~.	c #F5BC0C",
"{.	c #BFA24C",
"].	c #A4A4A3",
"^.	c #4A494A",
"/.	c #D29E0A",
"(.	c #EAB30C",
"_.	c #7A6016",
":.	c #5E5D62",
"<.	c #55AC4D",
"[.	c #1A5919",
"}.	c #1A8410",
"|.	c #204222",
"1.	c #1A1A20",
"2.	c #18181F",
"3.	c #121419",
"4.	c #342819",
"5.	c #6E541A",
"6.	c #4A391A",
"7.	c #23761C",
"8.	c #24CE12",
"9.	c #44C118",
"0.	c #3C571C",
"a.	c #1D461F",
"b.	c #479C40",
"c.	c #6A6E6B",
"d.	c #30C620",
"e.	c #38AA2C",
"f.	c #4F684C",
"g.	c #31C621",
"h.	c #32C422",
"i.	c #149914",
"j.	c #0F7812",
"k.	c #18B410",
"l.	c #117E0C",
"m.	c #435B3F",
"n.	c #35B826",
"o.	c #4C6648",
"p.	c #3BA22E",
"q.	c #3AA42E",
"r.	c #50684F",
"s.	c #5B5E5C",
"t.	c #2AC01A",
"u.	c #2FA023",
"v.	c #34822C",
"w.	c #427A3C",
"x.	c #487D43",
"y.	c #428E3A",
"z.	c #30C61F",
"A.	c #2FCB1E",
"B.	c #32BB24",
"C.	c #514F52",
"D.	c #30B421",
"E.	c #3E3C3E",
"F.	c #2DAA1F",
"G.	c #2DAB1F",
"H.	c #494849",
"I.	c #41C033",
"J.	c #3C7A35",
"K.	c #3DA831",
"L.	c #41793A",
"M.	c #32C521",
"N.	c #33C124",
"O.	c #408439",
"P.	c #34A028",
"Q.	c #3F6D3A",
"R.	c #37942D",
"S.	c #4A494B",
"T.	c #35AC27",
"U.	c #464445",
"V.	c #409036",
"W.	c #409038",
"X.	c #565555",
". + @ # $ % & * = - ; > , ' ) ! ",
"~ { ] ] ] ] ] ^ / ( _ : < [ } | ",
"1 2 3 3 3 3 3 3 3 4 5 6 3 3 7 8 ",
"9 0 3 3 3 3 3 3 3 a b c d 3 e f ",
"g h 3 3 3 3 3 3 3 i j k d 3 l m ",
"n o 3 3 3 3 3 3 3 p q r s 3 t u ",
"v w 3 3 3 3 3 3 3 x y z A 3 B C ",
"D w 3 3 3 3 3 3 E F G H I J K L ",
"M N 3 3 3 3 3 3 O P G Q R S T U ",
"V w 3 3 3 3 W X Y Z G Q `  ...+.",
"@.#.3 3 3 3 $.%.&.*.Q =.-.;.>.,.",
"'.N 3 3 3 3 ).!.~.{.].^./.(._.:.",
"<.[.}.|.1.2.3.4.5.6.7.8.9.0.a.b.",
"c.d.e.f.g.h.i.j.k.l.m.n.o.p.q.r.",
"s.t.u.v.w.x.y.z.A.B.C.D.E.F.G.H.",
"I.J.K.L.M.N.O.P.Q.R.S.T.U.V.W.X."};
