/* XPM */
static char * exit_xpm[] = {
"16 16 3 1",
" 	c gray77",
".	c #000000000000",
"X	c #861782078617",
"                ",
"                ",
"       ..       ",
"       ..X      ",
"    .  ..X .    ",
"   ..X ..X ..   ",
"  ..X  ..X  ..  ",
"  ..X  ..X  ..X ",
"  ..X  ..X  ..X ",
"  ..X   XX  ..X ",
"  ..X       ..X ",
"   ..      ..XX ",
"    ........XX  ",
"     ......XX   ",
"      XXXXXX    ",
"                "};
