/* XPM */
static char * mute_xpm[] = {
"16 16 3 1",
" 	c gray77",
".	c #000000000000",
"X	c #861782078617",
"                ",
"         .      ",
"        ..X     ",
"       . .X     ",
"      .  .X .   ",
" .....   .X .X  ",
" .       .X  .X ",
" .       .X  .X ",
" .       .X  .X ",
" .....   .X .XX ",
"  XXXX.  .X .X  ",
"       . .X  X  ",
"        ..X     ",
"         .X     ",
"          X     ",
"                "};
