/* XPM */
static char * snap_xpm[] = {
"16 16 3 1",
" 	c gray77",
".	c #000000000000",
"o	c #861782078617",
"                ",
"                ",
"                ",
" .............  ",
".  .   ....   . ",
".  .  .    .  .o",
".... .  ..  . .o",
".    . .  . . .o",
".    . .  . . .o",
".    .  ..  . .o",
".     .    .  .o",
".      ....   .o",
" .............oo",
"  ooooooooooooo ",
"                ",
"                "};
