/* XPM */
static char * tv_xpm[] = {
"32 32 9 1",
" 	c none",
".	c #000000000000",
"X	c #861782078617",
"o	c #FFFF82070000",
"O	c #FFFFFFFF0000",
"+	c #0000FFFF0000",
"@	c #0000FFFFFFFF",
"#	c #FFFF00000000",
"$	c #00000000FFFF",
"                                ",
"                                ",
"                                ",
"      ..             ..         ",
"      ..X            ..X        ",
"       X.           .XXX        ",
"         .         .X           ",
"          .       .X            ",
"           .     .X             ",
"            .   .X              ",
"             . .X               ",
"    ......................      ",
"    ......................X     ",
"    ......ooOOO+++@@......XX    ",
"    ...##oooOOO+++@@@$$...XX    ",
"    ..###oooOOO+++@@@$$$..XX    ",
"    ..###oooOOO+++@@@$$$..XX    ",
"    ..###oooOOO+++@@@$$$..XX    ",
"    ..###oooOOO+++@@@$$$..XX    ",
"    ..###oooOOO+++@@@$$$..XX    ",
"    ..###oooOOO+++@@@$$$$.XX    ",
"    ..###oooOOO+++@@@$$$..XX    ",
"    ...##oooOOO+++@@@$$...XX    ",
"    ......ooOOO+++@@......XX    ",
"    ......................XX    ",
"    ......................XX    ",
"     XXXXXXXXXXXXXXXXXXXXXXX    ",
"      XXXXXXXXXXXXXXXXXXXXXX    ",
"                                ",
"                                ",
"                                ",
"                                "};
